<?xml version="1.0" encoding="utf-8"?>
<!-- Generator: Adobe Illustrator 26.3.1, SVG Export Plug-In . SVG Version: 6.00 Build 0)  -->
<svg version="1.1" xmlns="http://www.w3.org/2000/svg" xmlns:xlink="http://www.w3.org/1999/xlink" x="0px" y="0px"
	 viewBox="0 0 600 600" style="enable-background:new 0 0 600 600;" xml:space="preserve">
<style type="text/css">
	.st0{fill:#F23005;}
	.st1{fill:#303EBC;}
	.st2{fill:#F2CB05;}
	.st3{fill:#5B627C;}
	.st4{fill:#FE4C00;}
	.st5{font-family:'Filicudi-Solid';}
	.st6{font-size:73px;}
	.st7{font-family:'Asap-Bold';}
	.st8{font-size:18px;}
	.st9{letter-spacing:3.58;}
	.st10{fill:#5B177C;}
	.st11{fill:#AC2404;}
	.st12{fill:none;stroke:#000000;stroke-width:15;stroke-miterlimit:10;}
</style>
<g id="Logo_06:_600_x__x_600_px">
	<g id="Graphic_Elements_5_">
		<g>
			<path class="st0" d="M330.1,177.31h-65.71c-10.92,0-21.21,2.66-30.27,7.37c24.51,8.06,42.2,31.13,42.2,58.33
				c0,27.2-17.69,50.27-42.2,58.33c9.06,4.71,19.36,7.37,30.27,7.37h65.71V177.31"/>
			<path class="st1" d="M413.61,177.31c-14.46,0-26.74,9.35-31.13,22.33c12.52,13.05,20.22,30.76,20.22,50.27v30.87h-21.94v27.93
				h65.71v-98.56C446.46,192.02,431.75,177.31,413.61,177.31"/>
			<path class="st2" d="M330.1,177.31v103.48h50.66v-70.63c0-3.68,0.6-7.22,1.72-10.52C369.27,185.88,350.68,177.31,330.1,177.31"/>
			<path class="st3" d="M382.48,199.64c-1.12,3.3-1.72,6.84-1.72,10.52v70.63h21.94v-30.87C402.7,230.4,395,212.69,382.48,199.64"/>
			<path class="st2" d="M214.93,181.63c-33.91,0-61.39,27.49-61.39,61.39s27.49,61.39,61.39,61.39c6.7,0,13.15-1.07,19.19-3.06
				c-21.05-10.95-35.43-32.96-35.43-58.33c0-25.37,14.38-47.38,35.43-58.33C228.08,182.7,221.63,181.63,214.93,181.63"/>
			<path class="st4" d="M234.12,184.69c-21.05,10.95-35.43,32.96-35.43,58.33c0,25.37,14.38,47.38,35.43,58.33
				c24.51-8.06,42.2-31.13,42.2-58.33C276.32,215.82,258.62,192.75,234.12,184.69"/>
		</g>
		<rect x="248.5" y="395.78" class="st1" width="300" height="50"/>
	</g>
	<g id="Text_5_">
		<g>
			<text transform="matrix(1 0 0 1 91.6047 384.0651)" class="st5 st6">Orange</text>
		</g>
		<g>
			<text transform="matrix(0.8376 0 0 1 256.1504 415.7354)" class="st2 st7 st8 st9">The way to the future</text>
		</g>
	</g>
</g>
<g id="Logo_05:_600_x__x_600_px">
	<g id="Graphic_Elements_4_">
		<path class="st1" d="M-316.41,228.13l-10.6,10.61c-33.7-33.69-88.32-33.69-122.02,0c-33.69,33.69-33.69,88.32,0,122.01
			l-10.6,10.61c-19.13-19.13-29.67-44.56-29.67-71.62c0-27.05,10.54-52.48,29.67-71.61c19.13-19.13,44.56-29.66,71.61-29.66
			S-335.54,209-316.41,228.13z"/>
		<path class="st2" d="M-327.01,360.75c-33.7,33.69-88.32,33.69-122.02,0l122.02-122.01C-293.32,272.43-293.32,327.06-327.01,360.75
			z"/>
		<polygon class="st0" points="-141.12,380.48 -179.18,402.45 -217.24,424.43 -217.24,380.48 -217.24,336.53 -179.18,358.5 		"/>
	</g>
	<g id="Text_4_">
		<g>
			<text transform="matrix(0.7071 -0.7071 0.7071 0.7071 -502.7291 339.8521)" class="st7 st8" style="letter-spacing:4;">slogan goes here</text>
		</g>
		<g>
			<g>
				<g>
					<text transform="matrix(1 0 0 1 -423.4575 321.7163)"><tspan x="0" y="0" class="st5" style="font-size:96px;">brand</tspan><tspan x="0" y="89.41" class="st5" style="font-size:96px;">name</tspan></text>
				</g>
			</g>
		</g>
	</g>
</g>
<g id="Logo_04:_600_x__x_600_px">
	<g id="Graphic_Elements_3_">
		<path class="st0" d="M-1079.37,201.79l124.2,124.2l45.25-45.25c-0.94,0.03-1.87,0.07-2.82,0.07c-47.09,0-85.27-38.17-85.27-85.27
			c0-34.82,20.88-64.74,50.79-77.98l-23.97-23.97L-1079.37,201.79z"/>
		<path class="st2" d="M-909.92,280.74c45.78-1.49,82.44-39.05,82.44-85.19c0-47.09-38.17-85.26-85.27-85.26
			c-12.27,0-23.93,2.61-34.48,7.28l100.24,100.24L-909.92,280.74z"/>
		<path class="st1" d="M-998,195.55c0,47.09,38.17,85.27,85.27,85.27c0.95,0,1.88-0.04,2.82-0.07l62.94-62.94l-100.24-100.24
			C-977.12,130.81-998,160.73-998,195.55z"/>
	</g>
	<g id="Text_3_">
		<g>
			<path id="SVGID_x5F_1_x5F_" style="fill:none;" d="M-1057.01,394.74c0,61.67,49.99,111.66,111.66,111.66
				s111.66-49.99,111.66-111.66"/>
			<text>			<textPath  xlink:href="#SVGID_x5F_1_x5F_" startOffset="6.000000e-03%">
<tspan  class="st7 st8" style="letter-spacing:258;">Slogan Goes Here</tspan>			</textPath>
</text>
		</g>
		<g>
			<text transform="matrix(0.7071 0.7071 -0.7071 0.7071 -1158.8256 256.616)" class="st5" style="font-size:96px;">brand</text>
		</g>
		<g>
			<text transform="matrix(0.7071 -0.7071 0.7071 0.7071 -896.0554 415.8868)" class="st5" style="font-size:96px;">name</text>
		</g>
	</g>
</g>
<g id="Logo_03:_600_x__x_600_px">
	<g id="Graphic_Elements_2_">
		<path class="st2" d="M198.65-282.09h59.6c15.75-32.2,10.27-72.15-16.49-98.92c-33.69-33.69-88.32-33.69-122.01,0
			c-33.69,33.69-33.69,88.32,0,122.01c33.69,33.69,88.32,33.69,122.01,0c2.21-2.21,4.27-4.52,6.2-6.91h-49.31V-282.09z"/>
		<path class="st0" d="M532.32-282.09H258.25c-2.78,5.68-6.2,11.11-10.3,16.19h284.36V-282.09z"/>
		<path class="st1" d="M198.65-282.09v16.19h49.31c4.1-5.08,7.52-10.52,10.3-16.19H198.65z"/>
	</g>
	<g id="Text_2_">
		<g>
			<path id="SVGID_x5F_00000123412281692726009750000013665703450377906596_x5F_" style="fill:none;" d="M172.77-211.78
				C113-211.78,64.55-260.23,64.55-320S113-428.22,172.77-428.22"/>
			<text>			<textPath  xlink:href="#SVGID_x5F_00000123412281692726009750000013665703450377906596_x5F_" startOffset="6.000000e-03%">
<tspan  class="st7 st8" style="letter-spacing:258;">Slogan Goes Here</tspan>			</textPath>
</text>
		</g>
		<g>
			<text transform="matrix(1 0 0 1 118.6592 -297.215)" class="st5 st6">brandname</text>
		</g>
	</g>
</g>
<g id="Logo_02:_600_x__x_600_px">
	<g id="Graphic_Elements_1_">
		<g>
			<path class="st1" d="M-357.99-456.07h-29.95v135.68h0c18.73,0,35.15-9.93,44.27-24.81v-49.33
				c-11.25-10.04-18.33-24.65-18.33-40.92C-362-442.74-360.58-449.7-357.99-456.07"/>
			<path class="st0" d="M-336.06-388.84v16.57c0,9.92-2.78,19.18-7.61,27.06v24.81h51.88v-62.41c-4.88,1.42-10.04,2.18-15.37,2.18
				C-317.77-380.62-327.67-383.63-336.06-388.84"/>
			<path class="st10" d="M-343.67-394.53v49.33c4.83-7.88,7.61-17.14,7.61-27.06v-16.57C-338.77-390.52-341.31-392.43-343.67-394.53
				"/>
			<path class="st2" d="M-307.17-490.28c-22.99,0-42.67,14.15-50.82,34.21h21.93v24.82c9.12-14.88,25.53-24.82,44.27-24.82h0v73.26
				c22.8-6.65,39.46-27.7,39.46-52.65C-252.34-465.73-276.89-490.28-307.17-490.28"/>
			<path class="st3" d="M-336.06-456.07h-21.93c-2.59,6.37-4.01,13.32-4.01,20.62c0,16.26,7.08,30.87,18.33,40.92v-9.66
				c0-9.92,2.78-19.18,7.61-27.06V-456.07"/>
			<path class="st4" d="M-291.8-456.07L-291.8-456.07c-18.73,0-35.15,9.93-44.27,24.82v42.41c8.39,5.21,18.29,8.22,28.89,8.22
				c5.34,0,10.5-0.76,15.37-2.18V-456.07"/>
			<path class="st11" d="M-336.06-431.25c-4.83,7.88-7.61,17.14-7.61,27.06v9.66c2.36,2.11,4.91,4.02,7.61,5.69V-431.25"/>
		</g>
		<rect x="-387.94" y="-485.31" class="st12" width="135.6" height="164.92"/>
	</g>
	<g id="Text_1_">
		<text transform="matrix(1 0 0 1 -502.1184 -245.2372)" class="st5" style="font-size:58px;">companyname</text>
		<g>
			<text transform="matrix(1 0 0 1 -462.3548 -312.1985)" class="st7 st8" style="letter-spacing:4;">Est</text>
		</g>
		<g>
			<text transform="matrix(1 0 0 1 -212.5696 -312.1985)" class="st7 st8" style="letter-spacing:4;">2030</text>
		</g>
		<g>
			<path id="SVGID_x5F_00000106145195223701130760000011467952584079820479_x5F_" style="fill:none;" d="M-428.36-257.94
				c0,59.77,48.45,108.22,108.22,108.22s108.22-48.45,108.22-108.22"/>
			<text>			<textPath  xlink:href="#SVGID_x5F_00000106145195223701130760000011467952584079820479_x5F_" startOffset="6.000000e-03%">
<tspan  class="st7 st8" style="letter-spacing:258;">Slogan Goes Here</tspan>			</textPath>
</text>
		</g>
	</g>
</g>
<g id="Logo_01:_600_x__x_600_px">
	<g id="Graphic_Elements">
		<path class="st2" d="M-881.25-411.16l58.96,58.96c-9.19-68.93-68.41-122.04-139.95-121.62c-78.27,0.46-140.56,64.03-139.5,142.29
			c1.04,76.62,63.47,138.42,140.34,138.42c76.1,0,138.05-60.57,140.29-136.13l-71.03-71.03L-881.25-411.16z"/>
		<path class="st1" d="M-732.41-262.33l-89.88-89.88c0.82,6.13,1.25,12.38,1.25,18.73c0,1.41-0.03,2.82-0.07,4.23l88.7,88.7v0
			C-726.39-246.56-726.39-256.31-732.41-262.33z"/>
		<path class="st0" d="M-822.28-352.2l-58.96-58.96l-10.89,10.89l71.03,71.03c0.04-1.4,0.07-2.81,0.07-4.23
			C-821.03-339.82-821.46-346.07-822.28-352.2z"/>
	</g>
	<g id="Text">
		<g>
			<path id="SVGID_x5F_00000110471394376169819350000003894154961047066259_x5F_" style="fill:none;" d="M-1127.92-132.89
				c0.58-10.59,2.33-20.84,5.1-30.63c17.5-61.79,75.97-105.46,142.78-101.77c77.4,4.27,136.68,70.48,132.4,147.88
				c-0.9,16.21-4.51,31.63-10.37,45.83"/>
			<text>			<textPath  xlink:href="#SVGID_x5F_00000110471394376169819350000003894154961047066259_x5F_" startOffset="31.0425%">
<tspan  class="st7 st8" style="letter-spacing:258;">Slogan Goes Here</tspan>			</textPath>
</text>
		</g>
		<text transform="matrix(0.7071 -0.7071 0.7071 0.7071 -1119.7064 -208.4762)" class="st5" style="font-size:94px;">company</text>
		<text transform="matrix(0.7071 0.7071 -0.7071 0.7071 -961.3531 -342.652)" class="st5" style="font-size:94px;">name</text>
	</g>
</g>
</svg>
